<svg id="Layer_4" data-name="Layer 4" xmlns="http://www.w3.org/2000/svg" viewBox="0 0 471.73 539.27"><defs><style>.cls-1{fill:#fff;}.cls-2{fill:#120a8f;}</style></defs><path class="cls-1" d="M215,221.65a117,117,0,0,1,7.83,36.86,6,6,0,0,1-1.64,4.4L207.82,277a134.84,134.84,0,0,0-1.28-40.46c-6.68-36.06-26.59-60.11-36.86-70.89C180,172.68,202.77,190.23,215,221.65Z" transform="translate(-109.04 -90.18)"/><path class="cls-2" d="M580.77,478.83c-3.62-11.89-17.82-67.1-21.48-78.33q-27.09-83-87.42-146c-12.9-13.4-27.05-25.35-43.22-34.74-2.38-1.39-5.43-2.35-6.89-4.42-2.41-3.41-18.13-73-59.19-107.07a137.53,137.53,0,0,0-28.28-18.06,445.57,445.57,0,0,1,8.17,83.74c.08,44.32-6.68,66.16-15.16,82.77-.49.95-.91,1.74-1.19,2.27a164.61,164.61,0,0,1-.49-46.42,121.46,121.46,0,0,0-38.1,13.3c-1.71-3.33-3.23-6.44-4.88-9.48-9.9-18.31-23.4-33.35-41.24-44.19-9.78-5.94-30-17.9-54.59-13.54a62.43,62.43,0,0,0-16.65,5.48c10.77,7,30.58,21.88,43.84,46.48a115.77,115.77,0,0,1,11.58,48.07,8.42,8.42,0,0,1-.49,2.89,7.18,7.18,0,0,1-1.69,2.51c-6,5.94-12.1,11.85-17.5,18.32-12.32,14.74-20.71,31.77-27.54,49.61a12.42,12.42,0,0,0-.37,2c1.07.09,1.86.19,2.66.22a114.61,114.61,0,0,0,44-6.93c31.73-11.41,63.53-22.64,95.3-33.91,1.47-.52,3.14-1.7,4.59-.42s.61,3.26.11,4.86c-8,25.36-21.08,47.58-40.52,65.87-8.95,8.41-19,15.18-30.7,19.26-8,2.8-16.2,4-24.62,2.42a35.56,35.56,0,0,1-24.32-16.47c-4.28-6.75-9.34-12.65-16.1-17A28.69,28.69,0,0,0,173,347.57c-.44,1.22-.79,2.08-1.08,2.95-2,6.27-4,12.57-6.14,18.79A68.44,68.44,0,0,1,142,401.62c-8.39,6.39-16.81,12.73-25.12,19.21-5.48,4.28-8.36,10.13-7.82,17,.71,8.93,3.53,17.19,9.82,23.94A178.07,178.07,0,0,1,138,486.7c2,3.05,4.11,6,6.27,8.93a10.81,10.81,0,0,0,3.37,2.79,35.31,35.31,0,0,0,26.06,2.27,76.44,76.44,0,0,0,12.45-4.34c14-6.39,29.94-21.72,31.38-23.12-4.14,12.71-10.21,20-15.07,24.39-14.25,12.78-31.28,22.47-34,25.65-2.91,3.39-2.58,6.3.68,9.2,9.23,8.19,17.49,10.15,17.49,10.15,17,4,39.66,6.83,55.51,9.15,0,0,10,1.46,31.68,7.17a41.64,41.64,0,0,1,6.46,2.22A44.49,44.49,0,0,1,295.13,572c7.13,7.75,11.14,17,13,27.23,1.87,10,3,19.81,1.44,29.39q10.65.79,21.52.81C439.45,629.45,533.49,568.39,580.77,478.83Z" transform="translate(-109.04 -90.18)"/><path class="cls-2" d="M207.82,277l13.4-14.12a6,6,0,0,0,1.64-4.4A117,117,0,0,0,215,221.65c-12.26-31.42-35-49-45.35-56,10.27,10.78,30.18,34.83,36.86,70.89A134.84,134.84,0,0,1,207.82,277Z" transform="translate(-109.04 -90.18)"/></svg>